<svg width="14" height="12" viewBox="0 0 14 12" fill="none" xmlns="http://www.w3.org/2000/svg">
<g clip-path="url(#clip0_7016_130734)">
<path d="M3.92174 11.88C3.01664 11.88 2.16894 11.547 1.55714 11.016C0.370645 9.98638 0.0402448 8.18938 1.70344 6.74638L8.52704 0.824377C9.21864 0.224377 10.0985 -0.00782254 10.9406 0.188377C11.7687 0.380377 12.4463 0.968977 12.6682 1.68718C12.8936 2.41918 12.6269 3.18298 11.936 3.78298L5.40994 9.44698C5.03754 9.77038 4.61614 9.96178 4.19334 10.0002C3.77404 10.0386 3.37434 9.92218 3.09434 9.67918C2.58754 9.23758 2.51474 8.40898 3.35894 7.67698L7.94254 3.69898C8.13084 3.53578 8.43604 3.53578 8.62434 3.69898C8.81264 3.86218 8.81264 4.12738 8.62434 4.29058L4.04004 8.26918C3.64384 8.61238 3.60744 8.94058 3.77614 9.08758C3.85034 9.15118 3.96234 9.18058 4.09184 9.16798C4.28994 9.15058 4.51604 9.03838 4.72814 8.85538L11.2542 3.19198C11.7022 2.80318 11.8737 2.34598 11.7372 1.90498C11.669 1.68932 11.5369 1.49243 11.3538 1.33339C11.1707 1.17434 10.9428 1.05853 10.6921 0.997177C10.1839 0.878977 9.65614 1.02838 9.20814 1.41718L2.38454 7.33918C1.11334 8.44258 1.41784 9.71278 2.23824 10.425C3.05934 11.1372 4.52164 11.4024 5.79354 10.2978L12.6171 4.37578C12.6616 4.33699 12.7147 4.30619 12.7732 4.28516C12.8318 4.26413 12.8946 4.2533 12.958 4.2533C13.0215 4.2533 13.0843 4.26413 13.1429 4.28516C13.2014 4.30619 13.2544 4.33699 13.2989 4.37578C13.3895 4.45477 13.4403 4.56111 13.4403 4.67188C13.4403 4.78264 13.3895 4.88898 13.2989 4.96798L6.47534 10.89C5.67104 11.5872 4.77014 11.88 3.92174 11.88Z" fill="#1B1B1B"/>
</g>
<defs>
<clipPath id="clip0_7016_130734">
<rect width="14" height="12" fill="white"/>
</clipPath>
</defs>
</svg>
