<svg width="13" height="13" viewBox="0 0 13 13" fill="none" xmlns="http://www.w3.org/2000/svg">
<g clip-path="url(#clip0_2680_261260)">
<path d="M3.64064 12.87C2.80019 12.87 2.01304 12.5093 1.44494 11.934C0.343193 10.8186 0.0363935 8.87188 1.58079 7.30863L7.91699 0.893126C8.55919 0.243126 9.37624 -0.00842358 10.1582 0.204126C10.9271 0.412126 11.5563 1.04978 11.7624 1.82783C11.9717 2.62083 11.724 3.44828 11.0825 4.09828L5.02254 10.2343C4.67674 10.5846 4.28544 10.792 3.89284 10.8336C3.50349 10.8752 3.13234 10.7491 2.87234 10.4858C2.40174 10.0074 2.33414 9.10978 3.11804 8.31678L7.37424 4.00728C7.54909 3.83048 7.83249 3.83048 8.00734 4.00728C8.18219 4.18408 8.18219 4.47138 8.00734 4.64818L3.75049 8.95833C3.38259 9.33013 3.34879 9.68568 3.50544 9.84493C3.57434 9.91383 3.67834 9.94568 3.79859 9.93203C3.98254 9.91318 4.19249 9.79163 4.38944 9.59338L10.4494 3.45803C10.8654 3.03683 11.0246 2.54153 10.8979 2.06378C10.8345 1.83015 10.7119 1.61685 10.5419 1.44455C10.3719 1.27225 10.1602 1.14679 9.92744 1.08033C9.45554 0.952276 8.96544 1.11413 8.54944 1.53533L2.21324 7.95083C1.03284 9.14618 1.31559 10.5222 2.07739 11.2938C2.83984 12.0653 4.19769 12.3526 5.37874 11.156L11.7149 4.74048C11.7563 4.69846 11.8055 4.66509 11.8599 4.64231C11.9142 4.61953 11.9726 4.60779 12.0315 4.60779C12.0904 4.60779 12.1488 4.61953 12.2031 4.64231C12.2575 4.66509 12.3067 4.69846 12.348 4.74048C12.4322 4.82606 12.4793 4.94125 12.4793 5.06125C12.4793 5.18125 12.4322 5.29645 12.348 5.38203L6.01184 11.7975C5.26499 12.5528 4.42844 12.87 3.64064 12.87Z" fill="#1B1B1B"/>
</g>
<defs>
<clipPath id="clip0_2680_261260">
<rect width="13" height="13" fill="white"/>
</clipPath>
</defs>
</svg>
