<svg width="20" height="21" viewBox="0 0 20 21" fill="none" xmlns="http://www.w3.org/2000/svg">
<path d="M15.9251 1.32996H6.68133C6.45973 1.33078 6.24045 1.37524 6.03603 1.4608C5.8316 1.54636 5.64604 1.67135 5.48992 1.82863C5.3338 1.98591 5.21019 2.1724 5.12614 2.37745C5.04209 2.5825 4.99926 2.8021 5.00008 3.02371V3.20496C4.99925 3.23667 5.00477 3.26822 5.01633 3.29776C5.0279 3.3273 5.04526 3.35423 5.0674 3.37695C5.08953 3.39967 5.116 3.41772 5.14523 3.43005C5.17446 3.44237 5.20586 3.44872 5.23758 3.44871H13.3188C13.8929 3.4487 14.4436 3.67634 14.8502 4.08171C15.2567 4.48708 15.4859 5.0371 15.4876 5.61121V15.9675C15.4867 15.9992 15.4923 16.0307 15.5038 16.0603C15.5154 16.0898 15.5328 16.1167 15.5549 16.1395C15.577 16.1622 15.6035 16.1802 15.6327 16.1925C15.662 16.2049 15.6934 16.2112 15.7251 16.2112H15.9251C16.3716 16.2112 16.7998 16.0343 17.1161 15.7192C17.4324 15.404 17.6109 14.9764 17.6126 14.53V3.02371C17.6134 2.80158 17.5704 2.58147 17.4859 2.37601C17.4015 2.17055 17.2773 1.98378 17.1205 1.82642C16.9638 1.66906 16.7775 1.5442 16.5723 1.459C16.3672 1.37381 16.1472 1.32995 15.9251 1.32996Z" fill="#CA7D2F"/>
<path d="M13.319 3.94868H4.07521C3.62874 3.94868 3.20046 4.12561 2.88417 4.44073C2.56788 4.75584 2.38936 5.18346 2.38771 5.62993V17.1362C2.38688 17.3583 2.42993 17.5784 2.51436 17.7839C2.5988 17.9893 2.72297 18.1761 2.87975 18.3335C3.03653 18.4908 3.22284 18.6157 3.42798 18.7009C3.63313 18.7861 3.85307 18.8299 4.07521 18.8299H13.319C13.541 18.8308 13.7611 18.7874 13.9662 18.7025C14.1714 18.6175 14.3576 18.4926 14.5141 18.3349C14.6705 18.1773 14.7941 17.9902 14.8775 17.7844C14.961 17.5786 15.0027 17.3582 15.0002 17.1362V5.62993C15.001 5.40891 14.9581 5.18992 14.8739 4.98557C14.7897 4.78122 14.6659 4.59555 14.5096 4.43927C14.3533 4.28298 14.1677 4.15917 13.9633 4.07498C13.759 3.99078 13.54 3.94785 13.319 3.94868ZM8.69396 15.7049H4.60021C4.47257 15.7049 4.35016 15.6542 4.25991 15.564C4.16966 15.4737 4.11896 15.3513 4.11896 15.2237C4.11896 15.096 4.16966 14.9736 4.25991 14.8834C4.35016 14.7931 4.47257 14.7424 4.60021 14.7424H8.69396C8.75716 14.7424 8.81974 14.7549 8.87813 14.7791C8.93651 14.8032 8.98957 14.8387 9.03425 14.8834C9.07894 14.9281 9.11439 14.9811 9.13858 15.0395C9.16276 15.0979 9.17521 15.1605 9.17521 15.2237C9.17521 15.2869 9.16276 15.3495 9.13858 15.4078C9.11439 15.4662 9.07894 15.5193 9.03425 15.564C8.98957 15.6087 8.93651 15.6441 8.87813 15.6683C8.81974 15.6925 8.75716 15.7049 8.69396 15.7049ZM12.8002 11.8799H4.60021C4.47257 11.8799 4.35016 11.8292 4.25991 11.739C4.16966 11.6487 4.11896 11.5263 4.11896 11.3987C4.11896 11.271 4.16966 11.1486 4.25991 11.0584C4.35016 10.9681 4.47257 10.9174 4.60021 10.9174H12.8002C12.9278 10.9174 13.0503 10.9681 13.1405 11.0584C13.2308 11.1486 13.2815 11.271 13.2815 11.3987C13.2815 11.5263 13.2308 11.6487 13.1405 11.739C13.0503 11.8292 12.9278 11.8799 12.8002 11.8799ZM12.8002 8.04868H4.60021C4.47257 8.04868 4.35016 7.99798 4.25991 7.90773C4.16966 7.81747 4.11896 7.69507 4.11896 7.56743C4.11896 7.43979 4.16966 7.31739 4.25991 7.22714C4.35016 7.13688 4.47257 7.08618 4.60021 7.08618H12.8002C12.8634 7.08618 12.926 7.09863 12.9844 7.12281C13.0428 7.147 13.0958 7.18245 13.1405 7.22714C13.1852 7.27182 13.2206 7.32488 13.2448 7.38326C13.269 7.44165 13.2815 7.50423 13.2815 7.56743C13.2815 7.63063 13.269 7.69321 13.2448 7.7516C13.2206 7.80998 13.1852 7.86304 13.1405 7.90773C13.0958 7.95241 13.0428 7.98786 12.9844 8.01205C12.926 8.03623 12.8634 8.04868 12.8002 8.04868Z" fill="#CA7D2F"/>
</svg>
