<svg width="25" height="26" viewBox="0 0 25 26" fill="none" xmlns="http://www.w3.org/2000/svg">
<path d="M21.6816 20.437H3.31836C3.21049 20.437 3.12305 20.5244 3.12305 20.6323V21.7754C3.12305 21.8833 3.21049 21.9708 3.31836 21.9708H21.6816C21.7895 21.9708 21.877 21.8833 21.877 21.7754V20.6323C21.877 20.5244 21.7895 20.437 21.6816 20.437Z" fill="#CA7D2F"/>
<path d="M6.52344 13.7455H4.00195C3.89409 13.7455 3.80664 13.833 3.80664 13.9409V19.6557C3.80664 19.7636 3.89409 19.851 4.00195 19.851H6.52344C6.63131 19.851 6.71875 19.7636 6.71875 19.6557V13.9409C6.71875 13.833 6.63131 13.7455 6.52344 13.7455Z" fill="#CA7D2F"/>
<path d="M11.3496 10.103H8.82617C8.7183 10.103 8.63086 10.1904 8.63086 10.2983V19.6557C8.63086 19.7636 8.7183 19.851 8.82617 19.851H11.3496C11.4575 19.851 11.5449 19.7636 11.5449 19.6557V10.2983C11.5449 10.1904 11.4575 10.103 11.3496 10.103Z" fill="#CA7D2F"/>
<path d="M16.1738 11.9252H13.6504C13.5425 11.9252 13.4551 12.0127 13.4551 12.1205V19.6557C13.4551 19.7636 13.5425 19.851 13.6504 19.851H16.1738C16.2817 19.851 16.3691 19.7636 16.3691 19.6557V12.1205C16.3691 12.0127 16.2817 11.9252 16.1738 11.9252Z" fill="#CA7D2F"/>
<path d="M20.998 8.28265H18.4766C18.3687 8.28265 18.2812 8.3701 18.2812 8.47797V19.6557C18.2812 19.7636 18.3687 19.851 18.4766 19.851H20.998C21.1059 19.851 21.1934 19.7636 21.1934 19.6557V8.47797C21.1934 8.3701 21.1059 8.28265 20.998 8.28265Z" fill="#CA7D2F"/>
<path d="M5.14062 12.6205C5.83529 12.6205 6.39844 12.0574 6.39844 11.3627C6.39844 10.6681 5.83529 10.1049 5.14062 10.1049C4.44595 10.1049 3.88281 10.6681 3.88281 11.3627C3.88281 12.0574 4.44595 12.6205 5.14062 12.6205Z" fill="#CA7D2F"/>
<path d="M10.0879 8.84515C10.7826 8.84515 11.3457 8.28201 11.3457 7.58734C11.3457 6.89267 10.7826 6.32953 10.0879 6.32953C9.39322 6.32953 8.83008 6.89267 8.83008 7.58734C8.83008 8.28201 9.39322 8.84515 10.0879 8.84515Z" fill="#CA7D2F"/>
<path d="M14.9121 10.519C15.6068 10.519 16.1699 9.95584 16.1699 9.26117C16.1699 8.5665 15.6068 8.00336 14.9121 8.00336C14.2174 8.00336 13.6543 8.5665 13.6543 9.26117C13.6543 9.95584 14.2174 10.519 14.9121 10.519Z" fill="#CA7D2F"/>
<path d="M19.7383 7.16742C20.4329 7.16742 20.9961 6.60428 20.9961 5.90961C20.9961 5.21494 20.4329 4.65179 19.7383 4.65179C19.0436 4.65179 18.4805 5.21494 18.4805 5.90961C18.4805 6.60428 19.0436 7.16742 19.7383 7.16742Z" fill="#CA7D2F"/>
<path d="M8.75976 8.86273L6.7168 10.4018C6.61125 10.2334 6.47936 10.0831 6.32617 9.95648L8.41602 8.38226C8.50388 8.55994 8.61997 8.72221 8.75976 8.86273ZM13.2812 8.41156C13.185 8.58955 13.119 8.78227 13.0859 8.98187L11.8184 8.21625C11.8888 8.018 11.9257 7.80943 11.9277 7.59906L13.2812 8.41156ZM18.4434 7.22015L16.6309 8.58734C16.5592 8.40267 16.4576 8.23109 16.3301 8.07953L18.0879 6.74359C18.1785 6.92148 18.2987 7.08264 18.4434 7.22015Z" fill="#CA7D2F"/>
</svg>
