<svg width="21" height="21" viewBox="0 0 21 21" fill="none" xmlns="http://www.w3.org/2000/svg">
<path d="M15.0938 3.27124H5.90625C5.7322 3.27124 5.56528 3.34038 5.44221 3.46345C5.31914 3.58652 5.25 3.75344 5.25 3.92749V4.58374H13.7944C14.1501 4.58374 14.4375 4.87118 14.4375 5.22687V17.7087H15.0938C15.2678 17.7087 15.4347 17.6396 15.5578 17.5165C15.6809 17.3935 15.75 17.2265 15.75 17.0525V3.92749C15.75 3.75344 15.6809 3.58652 15.5578 3.46345C15.4347 3.34038 15.2678 3.27124 15.0938 3.27124Z" fill="#CA7D2F"/>
<path d="M17.0625 1.30249H7.875C7.70095 1.30249 7.53403 1.37163 7.41096 1.4947C7.28789 1.61777 7.21875 1.78469 7.21875 1.95874V2.61499H15.75C15.924 2.61499 16.091 2.68413 16.214 2.8072C16.3371 2.93027 16.4062 3.09719 16.4062 3.27124V15.74H17.0625C17.2365 15.74 17.4035 15.6709 17.5265 15.5478C17.6496 15.4247 17.7188 15.2578 17.7188 15.0837V1.95874C17.7188 1.78469 17.6496 1.61777 17.5265 1.4947C17.4035 1.37163 17.2365 1.30249 17.0625 1.30249Z" fill="#CA7D2F"/>
<path d="M13.125 5.23999H3.9375C3.76345 5.23999 3.59653 5.30913 3.47346 5.4322C3.35039 5.55527 3.28125 5.72219 3.28125 5.89624V19.0212C3.28125 19.1953 3.35039 19.3622 3.47346 19.4853C3.59653 19.6084 3.76345 19.6775 3.9375 19.6775H13.125C13.299 19.6775 13.466 19.6084 13.589 19.4853C13.7121 19.3622 13.7812 19.1953 13.7812 19.0212V5.89624C13.7812 5.72219 13.7121 5.55527 13.589 5.4322C13.466 5.30913 13.299 5.23999 13.125 5.23999ZM11.1562 15.0837H6.83419L7.02647 15.276C7.08915 15.3366 7.13914 15.409 7.17354 15.489C7.20793 15.5691 7.22603 15.6552 7.22679 15.7424C7.22755 15.8295 7.21094 15.9159 7.17795 15.9966C7.14495 16.0772 7.09622 16.1505 7.0346 16.2121C6.97299 16.2737 6.89971 16.3224 6.81906 16.3554C6.73841 16.3884 6.652 16.405 6.56486 16.4043C6.47773 16.4035 6.39161 16.3854 6.31155 16.351C6.23148 16.3166 6.15907 16.2666 6.09853 16.204L4.78603 14.8915C4.663 14.7684 4.59389 14.6015 4.59389 14.4275C4.59389 14.2535 4.663 14.0866 4.78603 13.9635L6.09853 12.651C6.15907 12.5883 6.23148 12.5383 6.31155 12.504C6.39161 12.4696 6.47773 12.4515 6.56486 12.4507C6.652 12.4499 6.73841 12.4665 6.81906 12.4995C6.89971 12.5325 6.97299 12.5813 7.0346 12.6429C7.09622 12.7045 7.14495 12.7778 7.17795 12.8584C7.21094 12.9391 7.22755 13.0255 7.22679 13.1126C7.22603 13.1998 7.20793 13.2859 7.17354 13.3659C7.13914 13.446 7.08915 13.5184 7.02647 13.579L6.83419 13.7712H11.1562C11.3303 13.7712 11.4972 13.8404 11.6203 13.9635C11.7434 14.0865 11.8125 14.2534 11.8125 14.4275C11.8125 14.6015 11.7434 14.7685 11.6203 14.8915C11.4972 15.0146 11.3303 15.0837 11.1562 15.0837ZM12.2765 10.954L10.964 12.2665C10.9032 12.3276 10.8309 12.3761 10.7512 12.4093C10.6716 12.4424 10.5862 12.4594 10.5 12.4594C10.4138 12.4594 10.3284 12.4424 10.2488 12.4093C10.1691 12.3761 10.0968 12.3276 10.036 12.2665C9.913 12.1434 9.84389 11.9765 9.84389 11.8025C9.84389 11.6285 9.913 11.4616 10.036 11.3385L10.2283 11.1462H5.90625C5.7322 11.1462 5.56528 11.0771 5.44221 10.954C5.31914 10.831 5.25 10.664 5.25 10.49C5.25 10.3159 5.31914 10.149 5.44221 10.026C5.56528 9.90288 5.7322 9.83374 5.90625 9.83374H10.2283L10.036 9.64146C9.97335 9.58092 9.92336 9.50851 9.88896 9.42844C9.85457 9.34838 9.83647 9.26226 9.83571 9.17513C9.83495 9.08799 9.85156 9.00158 9.88455 8.92093C9.91755 8.84028 9.96628 8.767 10.0279 8.70539C10.0895 8.64377 10.1628 8.59504 10.2434 8.56204C10.3241 8.52905 10.4105 8.51244 10.4976 8.5132C10.5848 8.51396 10.6709 8.53206 10.751 8.56645C10.831 8.60085 10.9034 8.65084 10.964 8.71352L12.2765 10.026C12.3995 10.1491 12.4686 10.316 12.4686 10.49C12.4686 10.664 12.3995 10.8309 12.2765 10.954Z" fill="#CA7D2F"/>
</svg>
